<svg xmlns="http://www.w3.org/2000/svg" xmlns:xlink="http://www.w3.org/1999/xlink" width="111.294" height="115" viewBox="0 0 111.294 115">
  <defs>
    <clipPath id="clip-path">
      <rect id="사각형_653" data-name="사각형 653" width="111.294" height="115"/>
    </clipPath>
  </defs>
  <g id="그룹_432" data-name="그룹 432" clip-path="url(#clip-path)">
    <path id="패스_332" data-name="패스 332" d="M13.516,84.324a8.922,8.922,0,0,0-1.732-.44,4.827,4.827,0,0,0,3.23-2.816,3.711,3.711,0,0,0,.234-1.262,3.5,3.5,0,0,0-2.582-3.463,9.142,9.142,0,0,0-3.169-.5H.4a.4.4,0,1,0,0,.792H2.715V92.658H.4a.4.4,0,1,0,0,.792H9.877q3.933,0,5.693-2.377a4.492,4.492,0,0,0,.909-2.73,4.013,4.013,0,0,0-2.963-4.019m-7.19-7.689H8.144q3.317.06,3.345,3.406a3.1,3.1,0,0,1-1.73,3.168,3.506,3.506,0,0,1-1.469.294H6.326Zm4.225,15.642a4.142,4.142,0,0,1-1.82.381H6.326V84.324H8.967a3.194,3.194,0,0,1,3.286,2.2,4.714,4.714,0,0,1,.294,1.7q0,3.022-2,4.049" transform="translate(0 21.55)"/>
    <path id="패스_333" data-name="패스 333" d="M90.571,76.238a.4.4,0,0,1-.4.4H88.327l-.344.693,0,0L84.194,85h0l-.444.909v6.749h2.319a.4.4,0,0,1,0,.792h-8.26a.394.394,0,0,1-.383-.394.4.4,0,0,1,.117-.281.4.4,0,0,1,.279-.117h2.346V86.143L74.8,76.634H73.331a.4.4,0,0,1,0-.792H81.02a.4.4,0,0,1,0,.792H78.788l4.432,8.276.13-.261.076-.152,2.017-4.062,1.886-3.8H84.974a.4.4,0,0,1,0-.792h5.2a.4.4,0,0,1,.4.4" transform="translate(20.724 21.55)"/>
    <path id="패스_334" data-name="패스 334" d="M31,89.554h0Z" transform="translate(8.805 25.446)"/>
    <path id="패스_335" data-name="패스 335" d="M39.776,93.054a.4.4,0,0,1-.384.4H31.075a.4.4,0,0,1,0-.792h2.347V76.634H31.075a.4.4,0,1,1,0-.791h8.317a.4.4,0,0,1,0,.791h-2.36V92.656h2.36a.4.4,0,0,1,.384.4" transform="translate(8.717 21.55)"/>
    <path id="패스_336" data-name="패스 336" d="M39.293,89.554h0Z" transform="translate(8.804 25.446)"/>
    <path id="패스_337" data-name="패스 337" d="M37.467,88.938Z" transform="translate(10.642 25.271)"/>
    <path id="패스_338" data-name="패스 338" d="M37.467,89.554Z" transform="translate(10.642 25.446)"/>
    <path id="패스_339" data-name="패스 339" d="M32.193,92.659h-1.16l-4.59-7.573a5.024,5.024,0,0,0,3.816-3.169,4.768,4.768,0,0,0,.234-1.466,4.07,4.07,0,0,0-1.936-3.521,6.883,6.883,0,0,0-3.932-1.086H15.175a.4.4,0,0,0,0,.792h2.349V92.658H15.175a.4.4,0,0,0,0,.792h8.317a.4.4,0,0,0,.187-.051.4.4,0,0,0,.2-.344.4.4,0,0,0-.2-.342.371.371,0,0,0-.187-.053H21.133V85.409h1.879l4.005,7.249h0l.438.792h4.737a.384.384,0,0,0,.194-.057.4.4,0,0,0-.194-.733m-7.04-8.688a3.079,3.079,0,0,1-1.82.559h-2.2V76.634h2.025a3.133,3.133,0,0,1,3.2,2.2,4.868,4.868,0,0,1,.293,1.7,3.957,3.957,0,0,1-1.5,3.434" transform="translate(4.199 21.55)"/>
    <path id="패스_340" data-name="패스 340" d="M28.343,88.937h0Z" transform="translate(8.05 25.27)"/>
    <path id="패스_341" data-name="패스 341" d="M28.343,89.554Z" transform="translate(8.05 25.446)"/>
    <path id="패스_342" data-name="패스 342" d="M75.423,93.054a.4.4,0,0,1-.383.4H66.8a.35.35,0,0,1-.053,0,.4.4,0,0,1,0-.785.35.35,0,0,1,.053,0h2.3V84.822H61.815v7.835h2.359a.4.4,0,0,1,0,.792H55.859a.4.4,0,0,1-.283-.677.416.416,0,0,1,.091-.067l.037-.018a.2.2,0,0,1,.036-.013.215.215,0,0,1,.027-.008.343.343,0,0,1,.091-.01h2.346V76.634H55.859a.4.4,0,1,1,0-.791h8.3a.4.4,0,0,1,0,.791H61.815v7.308H69.1V76.634H66.805a.416.416,0,0,1-.056,0,.4.4,0,0,1,0-.783.419.419,0,0,1,.056,0h8.22a.4.4,0,1,1,0,.791H72.707V92.656H75.04a.4.4,0,0,1,.383.4" transform="translate(15.759 21.55)"/>
    <rect id="사각형_652" data-name="사각형 652" width="2.296" height="0.001" transform="translate(82.561 114.206)"/>
    <path id="패스_343" data-name="패스 343" d="M70.711,89.554Z" transform="translate(20.088 25.446)"/>
    <path id="패스_344" data-name="패스 344" d="M41.672,89.554h0Z" transform="translate(11.837 25.446)"/>
    <path id="패스_345" data-name="패스 345" d="M54.543,76.516a7.586,7.586,0,0,0-3.345-.674h-9.45a.4.4,0,1,0,0,.791h2.346V92.658H41.713a.4.4,0,0,0,0,.788h8.38a.4.4,0,0,0,.356-.394.333.333,0,0,0-.005-.062l-.005-.026-.005-.021a.3.3,0,0,0-.013-.036l-.008-.018-.013-.026-.013-.023-.014-.022a.2.2,0,0,1-.021-.026.251.251,0,0,0-.046-.044.185.185,0,0,0-.03-.024l-.006,0a.278.278,0,0,0-.033-.019.3.3,0,0,0-.05-.024l-.028-.009h0l-.03-.006a.152.152,0,0,0-.035,0H47.706V85.7H50.17q4.958,0,6.368-2.995a5.093,5.093,0,0,0,.47-2.2,4.125,4.125,0,0,0-2.466-3.992m-4.548,8.306H47.706V76.634h2.17q2.876,0,3.228,3.258c.021.254.028.518.028.791q0,3.9-3.138,4.139" transform="translate(11.749 21.55)"/>
    <path id="패스_346" data-name="패스 346" d="M48.14,89.554h0" transform="translate(13.676 25.445)"/>
    <path id="패스_347" data-name="패스 347" d="M48.144,88.937h0Z" transform="translate(13.672 25.27)"/>
    <path id="패스_348" data-name="패스 348" d="M48.52,89.33a.4.4,0,0,1-.361.394.4.4,0,0,0,.354-.394.334.334,0,0,0-.005-.062.4.4,0,0,0-.284-.321.394.394,0,0,1,.293.334c0,.015,0,.032,0,.049" transform="translate(13.684 25.273)"/>
    <path id="패스_349" data-name="패스 349" d="M48.14,89.554h0" transform="translate(13.676 25.445)"/>
    <path id="패스_350" data-name="패스 350" d="M48.187,88.937h0Z" transform="translate(13.629 25.27)"/>
    <path id="패스_351" data-name="패스 351" d="M48.142,88.937h0Z" transform="translate(13.678 25.27)"/>
    <path id="패스_352" data-name="패스 352" d="M48.142,89.553h0" transform="translate(13.678 25.445)"/>
    <path id="패스_353" data-name="패스 353" d="M23.822,87.232c-.041-.08-.083-.159-.126-.239l.014-.023c.036.087.074.176.112.262" transform="translate(6.733 24.712)"/>
    <path id="패스_354" data-name="패스 354" d="M23.822,87.232c-.041-.08-.083-.159-.126-.239l.014-.023c.036.087.074.176.112.262" transform="translate(6.733 24.712)"/>
    <path id="패스_355" data-name="패스 355" d="M23.822,87.232c-.041-.08-.083-.159-.126-.239l.014-.023c.036.087.074.176.112.262" transform="translate(6.733 24.712)"/>
    <path id="패스_356" data-name="패스 356" d="M23.71,86.97l-.014.024.126.238c-.037-.086-.076-.175-.112-.262" transform="translate(6.733 24.712)"/>
    <path id="패스_357" data-name="패스 357" d="M23.71,86.97l-.014.024.126.238c-.037-.086-.076-.175-.112-.262" transform="translate(6.733 24.712)"/>
    <path id="패스_358" data-name="패스 358" d="M23.822,87.232c-.041-.08-.083-.159-.126-.239l.014-.023c.036.087.074.176.112.262" transform="translate(6.733 24.712)"/>
    <path id="패스_359" data-name="패스 359" d="M23.822,87.232c-.041-.08-.083-.159-.126-.239l.014-.023c.036.087.074.176.112.262" transform="translate(6.733 24.712)"/>
    <path id="패스_360" data-name="패스 360" d="M23.71,86.97l-.014.024.126.238c-.037-.086-.076-.175-.112-.262" transform="translate(6.733 24.712)"/>
    <path id="패스_361" data-name="패스 361" d="M23.822,87.232c-.041-.08-.083-.159-.126-.239l.014-.023c.036.087.074.176.112.262" transform="translate(6.733 24.712)"/>
    <path id="패스_362" data-name="패스 362" d="M23.822,87.232c-.041-.08-.083-.159-.126-.239l.014-.023c.036.087.074.176.112.262" transform="translate(6.733 24.712)"/>
    <path id="패스_363" data-name="패스 363" d="M59.992,50.5h.019c.035-.055.069-.11.1-.166-.04.055-.081.112-.122.166M22.57,83.6a3.713,3.713,0,0,0,.818.335c-.275-.109-.547-.222-.818-.335m3.05-53.779-.014.023c.042.083.086.164.128.247-.039-.09-.077-.18-.114-.27M24.473,0a3.821,3.821,0,0,1,1.013.136c.019-.045.037-.09.058-.136Zm-.1,0a3.67,3.67,0,0,0-1.229.209l-.012.035A3.775,3.775,0,0,1,24.473,0ZM37.959,9.821a.5.5,0,0,0-.031.048.579.579,0,0,1,.036-.048Z" transform="translate(6.413 0)"/>
    <path id="패스_364" data-name="패스 364" d="M34.566,7.648a.581.581,0,0,0-.036.048.5.5,0,0,1,.031-.048Z" transform="translate(9.811 2.173)"/>
    <path id="패스_365" data-name="패스 365" d="M24.349,0a3.8,3.8,0,0,0-1.341.243L23.02.209A3.67,3.67,0,0,1,24.248,0Z" transform="translate(6.537 0)"/>
    <path id="패스_366" data-name="패스 366" d="M25.123,0c-.021.046-.039.091-.058.136A3.821,3.821,0,0,0,24.052,0Z" transform="translate(6.834 0)"/>
    <path id="패스_367" data-name="패스 367" d="M21.091,37.9v.277c0-.082,0-.166,0-.248V37.9Z" transform="translate(5.992 10.769)"/>
    <path id="패스_368" data-name="패스 368" d="M25.064,23.494l-.13-.245.014-.024c.037.09.077.18.116.27" transform="translate(7.085 6.599)"/>
    <path id="패스_369" data-name="패스 369" d="M51.834,39.2c-.033.055-.068.11-.1.166h-.019c.042-.054.082-.11.122-.166" transform="translate(14.693 11.138)"/>
    <path id="패스_370" data-name="패스 370" d="M38.38,7.648l-.031.048c.012-.015.024-.031.036-.048ZM60.414,48.331h.018c.036-.054.069-.109.1-.166-.04.057-.08.112-.121.166M21.089,46.5v.03c0,.083,0,.166,0,.248V46.5ZM26.041,27.65l-.014.024c.042.082.087.163.13.245-.039-.09-.078-.18-.116-.27" transform="translate(5.992 2.173)"/>
    <path id="패스_371" data-name="패스 371" d="M34.566,7.648a.581.581,0,0,0-.036.048.5.5,0,0,1,.031-.048Z" transform="translate(9.811 2.173)"/>
    <path id="패스_372" data-name="패스 372" d="M51.834,39.2c-.033.055-.068.11-.1.166h-.019c.042-.054.082-.11.122-.166" transform="translate(14.693 11.138)"/>
    <path id="패스_373" data-name="패스 373" d="M41.6,70.047H24.794a3.666,3.666,0,0,1-.984-.132h0c-.274-.108-.547-.221-.818-.335l0,0A3.708,3.708,0,0,1,21.22,67.32a3.663,3.663,0,0,1-.131-.977V49.348q.391.948.835,1.872.736,1.541,1.6,3A38.543,38.543,0,0,0,41.6,70.047" transform="translate(5.992 14.022)"/>
    <path id="패스_374" data-name="패스 374" d="M21.091,37.9v.277c0-.082,0-.166,0-.248V37.9Z" transform="translate(5.992 10.769)"/>
    <path id="패스_375" data-name="패스 375" d="M25.064,23.494l-.13-.245.014-.024c.037.09.077.18.116.27" transform="translate(7.085 6.599)"/>
    <path id="패스_376" data-name="패스 376" d="M51.834,39.2c-.033.055-.068.11-.1.166h-.019c.042-.054.082-.11.122-.166" transform="translate(14.693 11.138)"/>
    <path id="패스_377" data-name="패스 377" d="M21.091,37.9v.277c0-.082,0-.166,0-.248V37.9Z" transform="translate(5.992 10.769)"/>
    <path id="패스_378" data-name="패스 378" d="M25.064,23.494l-.13-.245.014-.024c.037.09.077.18.116.27" transform="translate(7.085 6.599)"/>
    <path id="패스_379" data-name="패스 379" d="M60.413,43.905h.019l.1-.166c-.041.055-.081.112-.122.166M26.04,23.224l-.013.023c.042.083.086.164.128.247l-.116-.27M21.088,42.073v.03c0,.082,0,.166,0,.248v-.277Z" transform="translate(5.992 6.599)"/>
    <path id="패스_380" data-name="패스 380" d="M51.713,39.366h.019c.035-.055.067-.11.1-.166l-.121.166" transform="translate(14.694 11.138)"/>
    <path id="패스_381" data-name="패스 381" d="M34.566,7.648a.581.581,0,0,0-.036.048.5.5,0,0,1,.031-.048Z" transform="translate(9.811 2.173)"/>
    <path id="패스_382" data-name="패스 382" d="M51.834,39.2c-.033.055-.068.11-.1.166h-.019c.042-.054.082-.11.122-.166" transform="translate(14.693 11.138)"/>
    <path id="패스_383" data-name="패스 383" d="M80.387,48.4a26.552,26.552,0,0,1-2.016,10.181,38.424,38.424,0,0,1-10.584,1.477l-.408,0q-1.318-.013-2.616-.116A38.2,38.2,0,0,1,45.928,53.23q-.582-.4-1.147-.826a38.6,38.6,0,0,1-10.12-11.311c-.014-.026-.03-.05-.044-.074a38.155,38.155,0,0,1-3.772-8.831,38.5,38.5,0,0,0,11.759,8.4c.333.154.669.3,1.005.446a38.148,38.148,0,0,0,11.916,2.925c.109.009.218.018.327.024q1.377.1,2.781.1a38.321,38.321,0,0,0,13.422-2.41q.755-.283,1.5-.6A38.1,38.1,0,0,0,78.5,38.55,26.515,26.515,0,0,1,80.387,48.4" transform="translate(8.765 9.146)"/>
    <path id="패스_384" data-name="패스 384" d="M56.594,48.331h.019c.035-.055.069-.11.1-.166-.04.055-.081.112-.122.166M34.561,7.648a.5.5,0,0,0-.031.048.581.581,0,0,1,.036-.048Z" transform="translate(9.811 2.173)"/>
    <path id="패스_385" data-name="패스 385" d="M25.064,23.494l-.13-.245.014-.024c.037.09.077.18.116.27" transform="translate(7.085 6.599)"/>
    <path id="패스_386" data-name="패스 386" d="M34.566,7.648a.581.581,0,0,0-.036.048.5.5,0,0,1,.031-.048Z" transform="translate(9.811 2.173)"/>
    <path id="패스_387" data-name="패스 387" d="M24.349,0a3.8,3.8,0,0,0-1.341.243L23.02.209A3.67,3.67,0,0,1,24.248,0Z" transform="translate(6.537 0)"/>
    <path id="패스_388" data-name="패스 388" d="M25.123,0c-.021.046-.039.091-.058.136A3.821,3.821,0,0,0,24.052,0Z" transform="translate(6.834 0)"/>
    <path id="패스_389" data-name="패스 389" d="M51.834,39.2c-.033.055-.068.11-.1.166h-.019c.042-.054.082-.11.122-.166" transform="translate(14.693 11.138)"/>
    <path id="패스_390" data-name="패스 390" d="M73.436,27.247a24.2,24.2,0,0,1-4.184,8.226,26.68,26.68,0,0,1,4.172,5.756,38.087,38.087,0,0,1-3.644,1.951q-.628.295-1.269.566a38.264,38.264,0,0,1-14.652,3.033c.035-.055.069-.109.1-.166-.04.057-.081.112-.122.166h-.318a38.528,38.528,0,0,1-9.3-1.133A38.25,38.25,0,0,0,57.387,39.6q.5-.356.988-.731a38.575,38.575,0,0,0,8.2-8.552q.166-.239.33-.48a38.159,38.159,0,0,0,6.13-15.614c.058-.371.109-.742.157-1.116.168.519.32,1.048.453,1.582a24.336,24.336,0,0,1-.211,12.554" transform="translate(12.565 3.725)"/>
    <path id="패스_391" data-name="패스 391" d="M25.5,29.823l-.014.023c.042.083.086.164.128.247-.039-.09-.077-.18-.114-.27M24.248,0A3.67,3.67,0,0,0,23.02.209l-.012.035A3.775,3.775,0,0,1,24.349,0Zm.1,0a3.821,3.821,0,0,1,1.013.136c.019-.045.037-.09.058-.136ZM37.835,9.821a.494.494,0,0,0-.031.048.578.578,0,0,1,.036-.048Z" transform="translate(6.537 0)"/>
    <path id="패스_392" data-name="패스 392" d="M25.064,23.494l-.13-.245.014-.024c.037.09.077.18.116.27" transform="translate(7.085 6.599)"/>
    <path id="패스_393" data-name="패스 393" d="M34.566,7.648a.581.581,0,0,0-.036.048.5.5,0,0,1,.031-.048Z" transform="translate(9.811 2.173)"/>
    <path id="패스_394" data-name="패스 394" d="M24.349,0a3.8,3.8,0,0,0-1.341.243L23.02.209A3.67,3.67,0,0,1,24.248,0Z" transform="translate(6.537 0)"/>
    <path id="패스_395" data-name="패스 395" d="M25.123,0c-.021.046-.039.091-.058.136A3.821,3.821,0,0,0,24.052,0Z" transform="translate(6.834 0)"/>
    <path id="패스_396" data-name="패스 396" d="M69.918,12.219q-.013,1.31-.114,2.6c-.041.542-.1,1.083-.159,1.617a38.173,38.173,0,0,1-5,14.816c-.065.11-.132.222-.2.331a38.46,38.46,0,0,1-6.035,7.643A38.379,38.379,0,0,0,60.2,27.6q0-1.788-.159-3.533h0c-.014-.148-.03-.3-.045-.443h0a38.141,38.141,0,0,0-3.531-12.564c-.08-.167-.162-.335-.243-.5A38.5,38.5,0,0,0,48.5,0h.214a24.483,24.483,0,0,1,21.2,12.219" transform="translate(13.781 0)"/>
    <path id="패스_397" data-name="패스 397" d="M38.38,9.821c-.012.015-.022.032-.032.048l.037-.048ZM24.894,0a3.769,3.769,0,0,1,1.013.137c.019-.046.037-.091.058-.137Zm-.1,0a3.67,3.67,0,0,0-1.229.209l-.012.035A3.775,3.775,0,0,1,24.894,0ZM26.04,29.823l-.013.023c.042.083.086.164.128.247l-.116-.27M21.088,48.672v.03c0,.082,0,.166,0,.248v-.277Z" transform="translate(5.992 0)"/>
    <path id="패스_398" data-name="패스 398" d="M48.237,9.033a38.187,38.187,0,0,0-13.6,5.984q-.47.327-.93.669a38.608,38.608,0,0,0-8.755,9.075c-.06.086-.119.173-.177.261a38.411,38.411,0,0,0-3.683,6.839V11.546c.208-.1.416-.2.624-.3.442-.208.889-.406,1.339-.6a38.291,38.291,0,0,1,14.919-3c.136,0,.274,0,.41,0-.012.015-.021.032-.031.048.012-.015.023-.032.036-.048a38.466,38.466,0,0,1,9.852,1.384" transform="translate(5.992 2.172)"/>
    <path id="패스_399" data-name="패스 399" d="M65.035,20.254A38.543,38.543,0,0,0,52.127,11c-.27-.117-.541-.234-.813-.344A38.189,38.189,0,0,0,39.933,7.91l-.208-.018q-1.5-.116-3.024-.117a38.273,38.273,0,0,0-13.424,2.412q-.79.295-1.565.624-.312.133-.623.27V3.706a3.711,3.711,0,0,1,2.477-3.5l-.012.035A3.856,3.856,0,0,1,25.907.136c.019-.045.039-.091.058-.135h25.81a38.573,38.573,0,0,1,9.058,10.317h0c.044.072.087.148.132.223a38.156,38.156,0,0,1,4.068,9.713" transform="translate(5.992 0)"/>
    <path id="패스_400" data-name="패스 400" d="M80.2,64.988A26.608,26.608,0,0,1,58.651,79.3H44.5c-.145-.059-.288-.122-.433-.185A38.575,38.575,0,0,1,26.559,63.7q-.8-1.327-1.492-2.726A38.21,38.21,0,0,1,21.09,44.182v-.276h0q0-1.506.117-2.983c.027-.352.058-.7.1-1.053A38.141,38.141,0,0,1,26.027,25.08l.13.245c-.039-.09-.078-.178-.116-.27a38.548,38.548,0,0,1,6.3-8.284A38.416,38.416,0,0,0,30.6,28.237q0,1.994.2,3.935c.045.433.1.863.154,1.292a38.12,38.12,0,0,0,3.5,11.565l.06.122A38.566,38.566,0,0,0,44.842,58.088q.649.526,1.321,1.025a38.2,38.2,0,0,0,19.614,7.4q1.395.116,2.817.131c.137,0,.276,0,.415,0A38.376,38.376,0,0,0,80.2,64.988" transform="translate(5.992 4.765)"/>
  </g>
</svg>
