<svg xmlns="http://www.w3.org/2000/svg" width="31.723" height="31.7" viewBox="0 0 31.723 31.7">
  <g id="그룹_350" data-name="그룹 350" transform="translate(-372.246 -497.265)">
    <path id="패스_158" data-name="패스 158" d="M396.018,528.964H380.17a2.311,2.311,0,0,0-.265-.065,8.259,8.259,0,0,1-2.452-.687,8.648,8.648,0,0,1-4.969-6c-.1-.387-.16-.781-.238-1.172V505.192a2.418,2.418,0,0,0,.065-.266,8.145,8.145,0,0,1,1.034-3.145,8.611,8.611,0,0,1,7.817-4.508c4.621-.016,9.242,0,13.862-.008a8.507,8.507,0,0,1,4.109.948,8.325,8.325,0,0,1,4.775,7.45c.114,4.969.038,9.942.023,14.914a7.55,7.55,0,0,1-.734,3.166,8.636,8.636,0,0,1-6,4.984C396.8,528.822,396.41,528.885,396.018,528.964ZM401.1,513.12h.012q0-3.451,0-6.9a6.474,6.474,0,0,0-.3-2.069,5.983,5.983,0,0,0-5.757-4.061c-4.643.026-9.286,0-13.928.02a6.983,6.983,0,0,0-2,.3,5.91,5.91,0,0,0-4.066,5.74c.027,4.643,0,9.286.021,13.928a6.976,6.976,0,0,0,.3,2,5.913,5.913,0,0,0,5.74,4.066c4.643-.027,9.286-.01,13.928-.005a5.8,5.8,0,0,0,2.829-.649,5.64,5.64,0,0,0,3.2-5C401.158,518.032,401.1,515.575,401.1,513.12Z" transform="translate(0 0)"/>
    <path id="패스_159" data-name="패스 159" d="M413.2,530.04a8.17,8.17,0,1,1-8.192,8.14A8.187,8.187,0,0,1,413.2,530.04Zm5.315,8.16a5.337,5.337,0,1,0-5.335,5.348A5.324,5.324,0,0,0,418.517,538.2Z" transform="translate(-25.085 -25.094)"/>
    <path id="패스_160" data-name="패스 160" d="M469.435,523.977a2.069,2.069,0,0,1-2.074-2.052,2.069,2.069,0,1,1,2.074,2.052Z" transform="translate(-72.824 -17.293)"/>
  </g>
</svg>
