<?xml version="1.0" encoding="utf-8"?>
<!-- Generator: Adobe Illustrator 24.3.0, SVG Export Plug-In . SVG Version: 6.00 Build 0)  -->
<svg version="1.1" id="Layer_1_xA0_Image_1_" xmlns="http://www.w3.org/2000/svg" xmlns:xlink="http://www.w3.org/1999/xlink"
	 x="0px" y="0px" viewBox="0 0 271.2 286.8" style="enable-background:new 0 0 271.2 286.8;" xml:space="preserve">
<style type="text/css">
	.st0{fill:#FFFFFF;stroke:#000000;stroke-miterlimit:10;}
</style>
<path class="st0" d="M129.84,0c3.84,0,7.68,0,11.52,0c0.59,0.07,1.18,0.17,1.78,0.2c14.91,0.73,29.39,3.63,43.34,8.93
	c26.88,10.21,48.79,26.83,64.82,50.84c10.74,16.08,17.2,33.77,19.23,53.03c0.24,2.3,0.44,4.6,0.67,6.9c0,3.6,0,7.19,0,10.79
	c-0.07,0.47-0.16,0.94-0.21,1.41c-0.43,4.01-0.68,8.05-1.32,12.02c-2.46,15.23-7.76,29.45-15.84,42.59
	c-13.97,22.71-33.36,39.35-57.42,50.63c-16.09,7.54-33.07,11.73-50.79,12.96c-9.2,0.64-18.39,0.4-27.54-0.71
	c-3.01-0.37-6.03-0.79-8.99-1.44c-1.08-0.24-1.73-0.09-2.55,0.52c-11.66,8.69-23.35,17.36-35.03,26.03
	c-4.94,3.67-9.88,7.34-14.83,11c-1.83,1.35-3.99,1.18-5.05-0.55c-0.49-0.79-0.7-1.87-0.7-2.82c-0.04-19.34-0.03-38.68-0.01-58.02
	c0-0.79-0.23-1.28-0.85-1.79c-5.21-4.29-10.54-8.46-15.53-13c-10.75-9.79-19.46-21.14-25.31-34.55
	c-5.14-11.76-7.75-24.12-8.74-36.87c-0.15-1.99-0.32-3.97-0.48-5.96c0-4.08,0-8.15,0-12.23c0.07-0.43,0.16-0.86,0.2-1.29
	c0.28-2.94,0.43-5.9,0.83-8.82c2.02-15,6.76-29.11,14.23-42.27C27.33,46.24,44.32,29.9,65.61,17.98
	c17.42-9.75,36.13-15.42,55.99-17.3C124.35,0.42,127.1,0.22,129.84,0z M138.01,114.12c-0.25-1.14-0.46-2.23-0.74-3.3
	c-3.65-13.81-11.32-24.58-24.22-31.17c-9.9-5.06-20.47-6.29-31.38-4.6c-12.71,1.97-23.33,7.78-31.5,17.78
	c-6.51,7.97-10.01,17.18-10.88,27.4c-1.02,12.04,1.38,23.29,8.08,33.46c11.99,18.21,34.14,25.65,54.49,20.93
	c19.4-4.5,30.84-17.21,35.66-36.23c0.12-0.47,0.17-0.96,0.27-1.54c-6.41,0-12.65-0.01-18.88,0.04c-0.31,0-0.74,0.46-0.91,0.81
	c-1.14,2.28-1.96,4.76-3.36,6.85c-5.11,7.58-12.45,11.63-21.47,12.32c-12.97,0.99-23.3-3.87-30.34-14.95
	c-4.3-6.76-5.32-14.3-4.21-22.13c1.14-8.1,4.63-15.01,11.16-20.12c7.14-5.6,15.39-7.36,24.27-6.41
	c10.95,1.17,21.05,8.29,24.14,20.07c0.17,0.66,0.44,0.89,1.13,0.89c5.96-0.03,11.92-0.01,17.88-0.02
	C137.43,114.2,137.66,114.16,138.01,114.12z M172.49,111.89c0-0.81,0-1.28,0-1.76c0-11.39-0.01-22.78,0.02-34.17
	c0-0.99-0.26-1.29-1.27-1.29c-5.2,0.05-10.4,0.02-15.6,0.03c-0.35,0-0.69,0.05-1.06,0.08c0,33.1,0,66.12,0,99.25
	c0.53,0,0.96,0,1.39,0c5,0,10-0.04,15,0.03c1.17,0.01,1.55-0.23,1.55-1.5c-0.05-11.75-0.05-23.5-0.02-35.25
	c0-1.79,0.05-3.61,0.33-5.37c0.91-5.87,3.71-10.34,9.71-12.18c3.12-0.95,6.32-1.03,9.48-0.26c4.52,1.1,7.6,3.88,8.84,8.38
	c0.51,1.86,0.75,3.85,0.76,5.78c0.06,12.95,0.03,25.9,0.03,38.84c0,0.46,0,0.93,0,1.45c6.07,0,11.96,0,18,0c0-0.46,0-0.85,0-1.23
	c0-13.91,0.02-27.81-0.02-41.72c-0.01-2.27-0.16-4.56-0.55-6.79c-1.59-9.11-6.35-15.95-14.89-19.8c-5.38-2.43-11.09-2.52-16.83-1.61
	c-4.96,0.78-9.3,2.82-12.75,6.56C173.94,110.08,173.34,110.87,172.49,111.89z"/>
</svg>
